<?xml version="1.0" standalone="no"?>
<!DOCTYPE svg PUBLIC "-//W3C//DTD SVG 20010904//EN"
 "http://www.w3.org/TR/2001/REC-SVG-20010904/DTD/svg10.dtd">
<svg version="1.0" xmlns="http://www.w3.org/2000/svg"
 width="26.000000pt" height="26.000000pt" viewBox="0 0 26.000000 26.000000"
 preserveAspectRatio="xMidYMid meet">

<g transform="translate(0.000000,26.000000) scale(0.100000,-0.100000)"
fill="#000000" stroke="none">
<path d="M43 248 c-44 -21 -51 -91 -17 -174 8 -19 9 -35 3 -45 -5 -7 -9 -17
-9 -21 0 -10 224 -11 233 -2 3 4 0 19 -8 35 -9 17 -15 56 -15 99 0 40 -4 70
-10 70 -5 0 -10 -4 -10 -10 0 -22 -47 -9 -61 16 -21 40 -63 53 -106 32z m75
-16 c20 -13 3 -42 -24 -42 -13 0 -24 5 -24 10 0 6 -4 10 -10 10 -6 0 -10 -31
-11 -72 -1 -70 -1 -72 -14 -43 -19 42 -19 105 2 127 17 19 58 24 81 10z m4
-89 c4 -38 27 -41 34 -4 5 24 12 31 30 31 22 0 24 -4 24 -45 l0 -45 -70 0 -70
0 0 45 c0 41 2 45 24 45 19 0 25 -6 28 -27z"/>
</g>
</svg>
