<?xml version="1.0" standalone="no"?>
<!DOCTYPE svg PUBLIC "-//W3C//DTD SVG 20010904//EN"
 "http://www.w3.org/TR/2001/REC-SVG-20010904/DTD/svg10.dtd">
<svg version="1.0" xmlns="http://www.w3.org/2000/svg"
 width="50.000000pt" height="50.000000pt" viewBox="0 0 50.000000 50.000000"
 preserveAspectRatio="xMidYMid meet">

<g transform="translate(0.000000,50.000000) scale(0.100000,-0.100000)"
fill="#000000" stroke="none">
<path d="M145 490 c-3 -5 -25 -10 -49 -10 -23 0 -47 -5 -54 -12 -17 -17 -17
-399 0 -416 14 -14 118 -16 118 -2 0 6 -25 10 -55 10 l-55 0 0 200 0 200 45 0
c25 0 45 -4 45 -10 0 -5 -16 -10 -35 -10 l-35 0 0 -180 0 -180 45 0 c25 0 45
5 45 10 0 6 -16 10 -35 10 l-35 0 0 160 0 160 24 0 c14 0 28 -4 31 -10 8 -13
142 -13 150 0 3 6 17 10 31 10 20 0 24 -5 24 -30 0 -16 5 -30 10 -30 6 0 10
18 10 40 0 39 -1 40 -35 40 -19 0 -35 5 -35 10 0 6 20 10 45 10 l45 0 0 -50
c0 -27 5 -50 10 -50 14 0 12 94 -2 108 -7 7 -31 12 -54 12 -24 0 -46 5 -49 10
-3 6 -37 10 -75 10 -38 0 -72 -4 -75 -10z m135 -40 l0 -30 -60 0 -60 0 0 30 0
30 60 0 60 0 0 -30z"/>
<path d="M175 337 c-3 -7 -4 -85 -3 -172 l3 -160 145 0 145 0 0 170 0 170
-143 3 c-111 2 -144 0 -147 -11z m275 -162 l0 -155 -130 0 -130 0 0 155 0 155
130 0 130 0 0 -155z"/>
<path d="M304 225 c-5 -19 -13 -25 -34 -25 -39 0 -45 -14 -16 -34 21 -13 24
-20 16 -46 -9 -33 -2 -37 30 -18 16 10 24 10 40 0 32 -19 39 -15 30 18 -8 26
-5 33 16 46 29 20 23 34 -16 34 -21 0 -29 6 -34 25 -4 14 -11 25 -16 25 -5 0
-12 -11 -16 -25z m30 -30 c3 -8 13 -15 23 -15 13 0 14 -3 5 -12 -7 -7 -12 -19
-12 -27 0 -11 -10 -16 -30 -16 -20 0 -30 5 -30 16 0 8 -5 20 -12 27 -9 9 -8
12 5 12 10 0 20 7 23 15 4 8 10 15 14 15 4 0 10 -7 14 -15z"/>
</g>
</svg>
