<?xml version="1.0" standalone="no"?>
<!DOCTYPE svg PUBLIC "-//W3C//DTD SVG 20010904//EN"
 "http://www.w3.org/TR/2001/REC-SVG-20010904/DTD/svg10.dtd">
<svg version="1.0" xmlns="http://www.w3.org/2000/svg"
 width="50.000000pt" height="50.000000pt" viewBox="0 0 50.000000 50.000000"
 preserveAspectRatio="xMidYMid meet">

<g transform="translate(0.000000,50.000000) scale(0.100000,-0.100000)"
fill="#000000" stroke="none">
<path d="M144 486 c-3 -8 -4 -27 -2 -43 3 -28 3 -28 78 -28 l75 0 0 40 0 40
-73 3 c-56 2 -74 0 -78 -12z"/>
<path d="M42 468 c-17 -17 -17 -399 0 -416 7 -7 34 -12 60 -12 45 0 48 2 48
25 0 22 -4 25 -35 25 l-35 0 0 170 c0 163 1 170 20 170 15 0 20 7 20 25 0 22
-4 25 -33 25 -18 0 -38 -5 -45 -12z"/>
<path d="M320 455 c0 -18 5 -25 20 -25 16 0 20 -7 20 -30 0 -25 4 -30 25 -30
23 0 25 4 25 43 0 52 -13 67 -57 67 -29 0 -33 -3 -33 -25z"/>
<path d="M175 337 c-3 -7 -4 -85 -3 -172 l3 -160 145 0 145 0 0 170 0 170
-143 3 c-111 2 -144 0 -147 -11z m159 -122 c5 -20 13 -25 39 -25 l32 0 -24
-19 c-19 -15 -22 -23 -16 -50 l7 -33 -26 17 c-24 16 -28 16 -52 0 l-26 -17 7
33 c6 27 3 35 -16 50 l-24 19 32 0 c26 0 34 5 39 25 3 14 10 25 14 25 4 0 11
-11 14 -25z"/>
</g>
</svg>
